<?xml version="1.0" encoding="utf-8"?>
<!-- Generator: Adobe Illustrator 16.0.0, SVG Export Plug-In . SVG Version: 6.00 Build 0)  -->
<!DOCTYPE svg PUBLIC "-//W3C//DTD SVG 1.1//EN" "http://www.w3.org/Graphics/SVG/1.1/DTD/svg11.dtd">
<svg version="1.1" id="Calque_1" xmlns="http://www.w3.org/2000/svg" xmlns:xlink="http://www.w3.org/1999/xlink" x="0px" y="0px"
	 width="640px" height="640px" viewBox="0 0 640 640" enable-background="new 0 0 640 640" xml:space="preserve">
<g>
	<path fill="#FFC277" d="M320,115.627c-79.68,0-144.491,66.987-144.491,149.333c0,82.518,86.443,201.856,123.626,249.323
		c4.992,6.422,12.544,10.09,20.672,10.09c8.107,0,15.638-3.646,20.652-10.025c37.418-47.488,124.395-166.849,124.031-249.43
		C464.148,182.592,399.316,115.627,320,115.627z M320,306.091c-25.344,0-45.973-20.629-45.973-45.974
		c0-25.344,20.629-45.973,45.973-45.973c25.344,0,45.973,20.629,45.973,45.973C365.973,285.483,345.344,306.091,320,306.091z"/>
	<path fill="#E5A96E" d="M320,214.145c-25.344,0-45.973,20.629-45.973,45.973c0,25.344,20.629,45.974,45.973,45.974
		c25.344,0,45.973-20.608,45.973-45.974C365.973,234.774,345.344,214.145,320,214.145z M320,292.971
		c-18.112,0-32.832-14.741-32.832-32.854c0-18.112,14.741-32.832,32.832-32.832c18.09,0,32.833,14.742,32.833,32.832
		C352.832,278.208,338.111,292.971,320,292.971z"/>
	<path fill="#E5A96E" d="M319.807,524.373c8.107,0,15.638-3.646,20.652-10.025c37.418-47.488,124.395-166.849,124.031-249.43
		C464.148,182.592,399.316,115.627,320,115.627c-79.68,0-144.491,66.987-144.491,149.333c0,82.518,86.443,201.856,123.626,249.323
		C304.127,520.705,311.679,524.373,319.807,524.373z M320,128.769c72.106,0,131.051,61.12,131.372,136.235
		c0.34,78.442-84.652,194.836-121.217,241.237c-5.035,6.4-15.68,6.379-20.694-0.021c-36.33-46.443-120.832-162.837-120.832-241.258
		C188.629,189.867,247.573,128.769,320,128.769z"/>
</g>
</svg>
