<?xml version="1.0" encoding="utf-8"?>
<!-- Generator: Adobe Illustrator 16.0.0, SVG Export Plug-In . SVG Version: 6.00 Build 0)  -->
<!DOCTYPE svg PUBLIC "-//W3C//DTD SVG 1.1//EN" "http://www.w3.org/Graphics/SVG/1.1/DTD/svg11.dtd">
<svg version="1.1" id="Calque_1" xmlns="http://www.w3.org/2000/svg" xmlns:xlink="http://www.w3.org/1999/xlink" x="0px" y="0px"
	 width="640px" height="640px" viewBox="0 0 640 640" enable-background="new 0 0 640 640" xml:space="preserve">
<g id="pain_8_">
	<g>
		<g>
			<path fill="#FFC277" d="M218.877,377.04c-16.114-0.001-25.464-4.912-27.79-14.597c-2.643-10.992,4.236-23.375,17.121-30.831
				c3.701-2.299,8.167-3.464,13.276-3.464c1.257,0,2.517,0.068,3.774,0.198c-0.041-0.099-0.077-0.198-0.11-0.301
				c-0.434-1.35-0.121-2.827,0.822-3.885c5.825-6.536,14.165-10.338,18.618-12.022c4.975-1.889,10.832-2.93,16.488-2.93
				c5.023,0,9.824,0.785,14.269,2.332c1.339,0.466,2.651,0.999,3.928,1.594c-0.099-0.442-0.124-0.905-0.066-1.371
				c0.187-1.495,1.197-2.758,2.615-3.269c4.719-1.698,9.997-2.559,15.688-2.559c16.817,0,36.803,8.2,39.767,21.449
				c4.761,21.209-29.537,32.53-67.31,41.606c-22.847,5.491-39.081,8.049-51.086,8.049C218.88,377.04,218.88,377.04,218.877,377.04z"
				/>
			<path fill="#E5A96E" d="M297.511,309.936c16.481,0,33.544,7.957,35.864,18.322c3.777,16.829-26.122,27.661-64.341,36.844
				c-19.26,4.629-36.887,7.938-50.156,7.938c-13.063,0-21.903-3.211-23.9-11.53c-2.025-8.424,3.131-19.457,15.29-26.468
				c3.23-2.022,7.1-2.894,11.217-2.894c10.406,0.001,22.381,5.572,29.523,12.224c-0.649-1.409-0.462-2.689-1.789-4.709
				c-5.493-8.325-11.599-10.894-20.262-12.841c4.748-5.326,11.728-8.93,17.047-10.942c4.194-1.593,9.475-2.671,15.073-2.671
				c4.247,0,8.677,0.621,12.954,2.11c8.935,3.108,17.471,10.061,21.456,19.159c0.297-1.705-0.023-4.037-0.478-5.561
				c-2.278-7.718-5.299-12.251-11.832-16.658C287.624,310.659,292.54,309.936,297.511,309.936 M297.511,301.936
				c-6.153,0-11.887,0.94-17.042,2.795c-1.61,0.579-2.957,1.644-3.89,3.003c-4.844-1.676-10.06-2.526-15.502-2.526
				c-6.218,0-12.413,1.104-17.913,3.192c-4.787,1.811-13.786,5.926-20.18,13.098c-0.7,0.786-1.227,1.688-1.568,2.649
				c-5.814,0.01-10.949,1.366-15.266,4.032c-14.396,8.354-22.01,22.484-18.953,35.199c1.545,6.435,5.796,11.384,12.294,14.31
				c5.007,2.255,11.348,3.351,19.384,3.351c12.332,0,28.863-2.593,52.025-8.16c22.932-5.51,38.713-10.655,49.661-16.194
				c7.226-3.655,12.437-7.52,15.931-11.813c4.517-5.551,6.137-11.902,4.686-18.367C337.74,311.128,316.275,301.936,297.511,301.936
				L297.511,301.936z"/>
		</g>
	</g>
</g>
<g>
	<rect x="278.272" y="162.304" fill="#FFDDA0" width="36.864" height="84.992"/>
	<rect x="278.272" y="135.168" fill="#FFDDA0" width="36.864" height="16.896"/>
	<path fill="#FFC277" d="M343.296,271.36c8.704,0,15.872-6.144,17.92-13.824h-35.84C327.424,265.216,334.592,271.36,343.296,271.36z
		"/>
	<rect x="325.376" y="162.304" fill="#FFC277" width="36.864" height="84.992"/>
	<rect x="231.168" y="162.304" fill="#FFC277" width="36.864" height="84.992"/>
	<path fill="#FFC277" d="M249.6,271.36c8.704,0,15.872-6.144,17.92-13.824h-35.84C233.728,265.216,240.896,271.36,249.6,271.36z"/>
	<path fill="#FFDDA0" d="M296.704,271.36c8.704,0,15.872-6.144,17.92-13.824h-35.84C280.832,265.216,288,271.36,296.704,271.36z"/>
	<rect x="231.168" y="135.168" fill="#FFC277" width="36.864" height="16.896"/>
	<rect x="417.536" y="135.168" fill="#FFC277" width="36.863" height="16.896"/>
	<path fill="#FFC277" d="M437.504,271.36c8.704,0,15.872-6.144,17.92-13.824h-35.84C421.632,265.216,428.8,271.36,437.504,271.36z"
		/>
	<rect x="465.152" y="135.168" fill="#FFDDA0" width="28.159" height="16.896"/>
	<rect x="372.479" y="162.304" fill="#FFDDA0" width="34.816" height="84.992"/>
	<rect x="325.376" y="135.168" fill="#FFC277" width="36.864" height="16.896"/>
	<rect x="417.536" y="162.304" fill="#FFC277" width="36.863" height="84.992"/>
	<rect x="372.479" y="135.168" fill="#FFDDA0" width="34.816" height="16.896"/>
	<path fill="#FFC277" d="M173.824,257.536h-35.84c2.048,7.68,9.216,13.824,17.92,13.824S171.776,265.216,173.824,257.536z"/>
	<path fill="#FFDDA0" d="M461.056,269.312c-5.12,7.168-13.824,12.288-23.552,12.288c-9.729,0-18.432-4.608-23.552-12.288
		c-5.12,7.168-13.824,12.288-23.553,12.288c-1.023,0-2.56-0.512-3.584-0.512v199.679h104.96h0.513V280.576
		c-2.561,0.512-5.12,1.024-7.681,1.024C474.88,281.6,466.176,276.992,461.056,269.312z"/>
	<rect x="386.815" y="491.008" fill="#FFC277" width="104.96" height="13.313"/>
	<path fill="#FFDDA0" d="M408.32,257.536h-35.328c1.023,4.608,3.584,8.192,7.68,10.752c0.512,0,0.512,0,1.024,0
		c1.535,0,3.071,1.024,4.096,2.56c1.536,0.512,3.072,0.512,4.607,0.512C399.104,271.36,406.271,265.216,408.32,257.536z"/>
	<rect x="184.064" y="135.168" fill="#FFDDA0" width="37.376" height="16.896"/>
	<path fill="#FFDDA0" d="M484.607,271.36c8.192,0,15.36-5.632,17.408-13.824h-35.328C468.736,265.216,475.904,271.36,484.607,271.36
		z"/>
	<polygon fill="#FFDDA0" points="464.64,162.304 464.64,247.296 502.016,247.296 493.312,162.304 	"/>
	<path fill="#FFDDA0" d="M202.496,271.36c8.704,0,15.872-6.144,17.92-13.824h-35.84C186.624,265.216,193.792,271.36,202.496,271.36z
		"/>
	<rect x="184.064" y="162.304" fill="#FFDDA0" width="37.376" height="84.992"/>
	<rect x="147.2" y="135.168" fill="#FFC277" width="26.112" height="16.896"/>
	<rect x="147.2" y="429.568" fill="#FFC277" width="229.376" height="75.264"/>
	<polygon fill="#FFC277" points="173.824,162.304 147.2,162.304 138.496,247.296 173.824,247.296 	"/>
	<rect x="147.2" y="412.16" fill="#FFDDA0" width="229.376" height="7.168"/>
	<path fill="#E5A96E" d="M503.04,157.184v-27.136c0-3.072-2.048-5.12-5.12-5.12H142.08c-3.072,0-5.12,2.048-5.12,5.12v27.136
		c0,0,0,0,0,0.512l-9.728,94.72v0.512v0.512c0,8.192,4.096,15.872,9.728,20.992v235.521c0,3.07,2.048,5.119,5.12,5.119h354.815
		c3.072,0,5.12-2.049,5.12-5.119V275.456c6.656-5.12,10.752-13.312,10.752-22.528v-0.512v-0.512l-9.728-94.208V157.184z
		 M465.152,135.168h28.159v16.896h-28.159V135.168z M417.536,135.168h36.863v16.896h-36.863V135.168z M455.424,257.536
		c-2.048,7.68-9.216,13.824-17.92,13.824s-15.872-6.144-17.92-13.824H455.424z M417.536,162.304h36.863v84.992h-36.863V162.304z
		 M372.479,135.168h34.816v16.896h-34.816V135.168z M372.479,162.304h34.816v84.992h-34.816V162.304z M325.376,135.168h36.864
		v16.896h-36.864V135.168z M325.376,162.304h36.864v84.992h-36.864V162.304z M361.216,257.536
		c-2.048,7.68-9.216,13.824-17.92,13.824s-15.872-6.144-17.92-13.824H361.216z M278.272,135.168h36.864v16.896h-36.864V135.168z
		 M278.272,162.304h36.864v84.992h-36.864V162.304z M314.624,257.536c-2.048,7.68-9.216,13.824-17.92,13.824
		s-15.872-6.144-17.92-13.824H314.624z M231.168,135.168h36.864v16.896h-36.864V135.168z M231.168,162.304h36.864v84.992h-36.864
		V162.304z M267.52,257.536c-2.048,7.68-9.216,13.824-17.92,13.824c-8.704,0-15.872-6.144-17.92-13.824H267.52z M184.064,135.168
		h37.376v16.896h-37.376V135.168z M184.064,162.304h37.376v84.992h-37.376V162.304z M220.416,257.536
		c-2.048,7.68-9.216,13.824-17.92,13.824c-8.704,0-15.872-6.144-17.92-13.824H220.416z M147.2,135.168h26.112v16.896H147.2V135.168z
		 M147.2,162.304h26.624v84.992h-35.328L147.2,162.304z M137.984,257.536h35.84c-2.048,7.68-9.216,13.824-17.92,13.824
		S140.032,265.216,137.984,257.536z M376.576,504.832H147.2v-75.264h229.376V504.832z M376.576,419.328H147.2v-7.168h229.376
		V419.328z M377.088,401.92h-10.752h-62.977h-11.264h-9.728h-41.984h-10.24H218.88h-61.952h-9.216V280.576
		c2.56,0.512,5.12,1.024,8.192,1.024c9.728,0,18.432-5.12,23.552-12.288c5.12,7.68,13.824,12.288,23.552,12.288
		s18.432-5.12,23.552-12.288c5.12,7.68,13.824,12.288,23.552,12.288s18.432-5.12,23.552-12.288
		c5.12,7.68,13.824,12.288,23.552,12.288c9.728,0,18.432-5.12,23.552-12.288c5.12,7.68,13.824,12.288,23.553,12.288
		c9.728,0,18.432-5.12,23.552-12.288c2.56,3.584,5.632,6.656,9.216,8.704V401.92z M381.696,268.288c-0.513,0-0.513,0-1.024,0
		c-4.096-2.56-6.656-6.144-7.68-10.752h35.328c-2.049,7.68-9.217,13.824-17.921,13.824c-1.535,0-3.071,0-4.607-0.512
		C384.768,269.312,383.231,268.288,381.696,268.288z M491.775,504.32h-104.96v-13.313h104.96V504.32z M492.288,480.768h-0.513
		h-104.96V281.088c1.024,0,2.561,0.512,3.584,0.512c9.729,0,18.433-5.12,23.553-12.288c5.12,7.68,13.823,12.288,23.552,12.288
		c9.728,0,18.432-5.12,23.552-12.288c5.12,7.68,13.824,12.288,23.552,12.288c2.561,0,5.12-0.512,7.681-1.024V480.768z
		 M484.607,271.36c-8.703,0-15.871-6.144-17.92-13.824h35.328C499.968,265.728,492.8,271.36,484.607,271.36z M464.64,247.296
		v-84.992h28.672l8.704,84.992H464.64z"/>
</g>
</svg>
