<?xml version="1.0" encoding="utf-8"?>
<!-- Generator: Adobe Illustrator 16.0.0, SVG Export Plug-In . SVG Version: 6.00 Build 0)  -->
<!DOCTYPE svg PUBLIC "-//W3C//DTD SVG 1.1//EN" "http://www.w3.org/Graphics/SVG/1.1/DTD/svg11.dtd">
<svg version="1.1" id="Calque_1" xmlns="http://www.w3.org/2000/svg" xmlns:xlink="http://www.w3.org/1999/xlink" x="0px" y="0px"
	 width="640px" height="640px" viewBox="0 0 640 640" enable-background="new 0 0 640 640" xml:space="preserve">
<g>
	<path fill="#FFC277" d="M332.8,528.8c-0.688,0-1.375-0.177-1.992-0.531c-1.242-0.714-2.008-2.036-2.008-3.469v-27.238
		c0-24.093,12.927-46.601,33.735-58.738l45.049-26.278c0.623-0.363,1.319-0.545,2.016-0.545c0.688,0,1.375,0.177,1.992,0.531
		c1.242,0.714,2.008,2.036,2.008,3.469v27.238c0,24.094-12.927,46.601-33.734,58.738l-45.05,26.278
		C334.192,528.618,333.496,528.8,332.8,528.8z M307.2,528.8c-0.696,0-1.393-0.182-2.016-0.545l-45.05-26.278
		c-20.809-12.139-33.735-34.646-33.735-58.738V416c0-1.433,0.766-2.755,2.008-3.469c0.617-0.354,1.305-0.531,1.992-0.531
		c0.696,0,1.393,0.182,2.016,0.545l45.05,26.278c20.809,12.139,33.735,34.646,33.735,58.738V524.8c0,1.433-0.766,2.755-2.008,3.469
		C308.576,528.623,307.888,528.8,307.2,528.8z M332.8,426.4c-0.688,0-1.375-0.177-1.992-0.531c-1.242-0.714-2.008-2.036-2.008-3.469
		v-27.239c0-24.093,12.927-46.6,33.735-58.737l45.049-26.279c0.623-0.363,1.319-0.545,2.016-0.545c0.688,0,1.375,0.177,1.992,0.531
		c1.242,0.713,2.008,2.037,2.008,3.469v27.238c0,24.093-12.926,46.601-33.734,58.739l-45.05,26.278
		C334.192,426.219,333.496,426.4,332.8,426.4z M307.2,426.4c-0.696,0-1.393-0.182-2.016-0.545l-45.05-26.278
		c-20.809-12.14-33.735-34.646-33.735-58.739V313.6c0-1.432,0.766-2.755,2.008-3.469c0.617-0.354,1.305-0.531,1.992-0.531
		c0.696,0,1.393,0.182,2.016,0.545l45.05,26.279c20.809,12.139,33.735,34.646,33.735,58.737V422.4c0,1.433-0.766,2.755-2.008,3.469
		C308.576,426.224,307.888,426.4,307.2,426.4z M332.8,324c-0.688,0-1.375-0.177-1.992-0.531c-1.242-0.714-2.008-2.036-2.008-3.469
		v-27.238c0-24.093,12.927-46.6,33.735-58.738l45.049-26.278c0.623-0.363,1.319-0.545,2.016-0.545c0.688,0,1.375,0.177,1.992,0.531
		c1.242,0.713,2.008,2.037,2.008,3.469v27.238c0,24.093-12.927,46.601-33.734,58.738l-45.05,26.278
		C334.192,323.818,333.496,324,332.8,324z M307.2,324c-0.696,0-1.393-0.182-2.016-0.545l-45.05-26.278
		c-20.809-12.138-33.735-34.646-33.735-58.738V211.2c0-1.432,0.766-2.755,2.008-3.469c0.617-0.354,1.305-0.531,1.992-0.531
		c0.696,0,1.393,0.182,2.016,0.545l45.05,26.278c20.809,12.138,33.735,34.646,33.735,58.738V320c0,1.433-0.766,2.755-2.008,3.469
		C308.576,323.823,307.888,324,307.2,324z M320,240.8c-0.884,0-1.768-0.292-2.498-0.876l-10.771-8.614
		c-14.82-11.857-23.807-28.805-25.307-47.724s4.706-37.072,17.473-51.115l18.143-19.961c0.758-0.834,1.833-1.31,2.96-1.31
		s2.202,0.476,2.96,1.31l18.144,19.961c12.767,14.042,18.973,32.195,17.473,51.114c-1.499,18.919-10.486,35.868-25.306,47.724
		l-10.772,8.615C321.768,240.508,320.884,240.8,320,240.8z"/>
	<path fill="#E5A96E" d="M320,115.2l18.144,19.961c24.846,27.328,21.466,69.952-7.372,93.024L320,236.8l-10.771-8.614
		c-28.838-23.072-32.217-65.696-7.372-93.024L320,115.2 M409.6,211.2v27.238c0,22.765-12.089,43.814-31.75,55.283L332.8,320v-27.238
		c0-22.765,12.09-43.814,31.751-55.283L409.6,211.2 M230.4,211.2l45.05,26.278c19.661,11.469,31.75,32.519,31.75,55.283V320
		l-45.05-26.278c-19.661-11.469-31.75-32.519-31.75-55.283V211.2 M409.6,313.6v27.238c0,22.766-12.089,43.814-31.75,55.284
		L332.8,422.4v-27.239c0-22.765,12.09-43.813,31.751-55.282L409.6,313.6 M230.4,313.6l45.05,26.279
		c19.661,11.469,31.75,32.518,31.75,55.282V422.4l-45.05-26.278c-19.661-11.47-31.75-32.519-31.75-55.284V313.6 M409.6,416v27.238
		c0,22.765-12.089,43.814-31.75,55.283L332.8,524.8v-27.238c0-22.765,12.09-43.814,31.751-55.283L409.6,416 M230.4,416l45.05,26.278
		c19.661,11.469,31.75,32.519,31.75,55.283V524.8l-45.05-26.278c-19.661-11.469-31.75-32.519-31.75-55.283V416 M320,107.2
		c-2.254,0-4.404,0.951-5.92,2.619l-18.144,19.961c-13.518,14.868-20.088,34.089-18.5,54.121
		c1.587,20.032,11.103,37.978,26.794,50.531l10.772,8.615c1.461,1.168,3.229,1.752,4.997,1.752c1.768,0,3.536-0.584,4.996-1.752
		l10.771-8.614c15.693-12.555,25.209-30.501,26.797-50.533c1.587-20.032-4.983-39.252-18.502-54.121l-18.143-19.96
		C324.403,108.151,322.254,107.2,320,107.2L320,107.2z M230.4,203.2c-1.375,0-2.75,0.354-3.984,1.063
		c-2.484,1.427-4.016,4.073-4.016,6.937v27.238c0,25.51,13.687,49.341,35.719,62.193l45.05,26.278
		c1.245,0.727,2.638,1.09,4.031,1.09c1.375,0,2.75-0.354,3.984-1.063c2.484-1.427,4.016-4.073,4.016-6.938v-27.238
		c0-25.51-13.687-49.341-35.72-62.193l-45.05-26.278C233.186,203.563,231.793,203.2,230.4,203.2L230.4,203.2z M409.6,203.2
		c-1.394,0-2.785,0.363-4.031,1.09l-45.049,26.278c-22.032,12.852-35.72,36.683-35.72,62.193V320c0,2.864,1.531,5.511,4.016,6.938
		c1.233,0.708,2.609,1.063,3.984,1.063c1.394,0,2.785-0.363,4.031-1.09l45.05-26.278c22.032-12.852,35.719-36.683,35.719-62.193
		V211.2c0-2.864-1.531-5.51-4.016-6.937C412.351,203.554,410.975,203.2,409.6,203.2L409.6,203.2z M409.6,305.6
		c-1.394,0-2.786,0.363-4.031,1.09l-45.049,26.279c-22.032,12.853-35.72,36.683-35.72,62.192V422.4c0,2.864,1.531,5.511,4.016,6.938
		c1.233,0.708,2.609,1.063,3.984,1.063c1.394,0,2.785-0.363,4.031-1.09l45.05-26.278c22.032-12.853,35.719-36.685,35.719-62.194
		V313.6c0-2.865-1.531-5.51-4.016-6.937C412.351,305.954,410.975,305.6,409.6,305.6L409.6,305.6z M230.4,305.6
		c-1.375,0-2.75,0.354-3.984,1.063c-2.484,1.427-4.016,4.073-4.016,6.937v27.238c0,25.51,13.687,49.341,35.719,62.194l45.05,26.278
		c1.245,0.727,2.638,1.09,4.031,1.09c1.375,0,2.75-0.354,3.984-1.063c2.484-1.427,4.016-4.073,4.016-6.938v-27.239
		c0-25.51-13.687-49.34-35.72-62.192l-45.05-26.279C233.186,305.963,231.793,305.6,230.4,305.6L230.4,305.6z M230.4,408
		c-1.375,0-2.75,0.354-3.984,1.063c-2.484,1.427-4.016,4.073-4.016,6.938v27.238c0,25.51,13.687,49.341,35.719,62.193l45.05,26.278
		c1.245,0.727,2.638,1.09,4.031,1.09c1.375,0,2.75-0.354,3.984-1.063c2.484-1.427,4.016-4.073,4.016-6.938v-27.238
		c0-25.51-13.687-49.341-35.72-62.193l-45.05-26.278C233.186,408.363,231.793,408,230.4,408L230.4,408z M409.6,408
		c-1.394,0-2.785,0.363-4.031,1.09l-45.049,26.278c-22.032,12.853-35.72,36.684-35.72,62.193V524.8c0,2.864,1.531,5.511,4.016,6.938
		c1.233,0.708,2.609,1.063,3.984,1.063c1.394,0,2.785-0.363,4.031-1.09l45.05-26.278c22.032-12.852,35.719-36.683,35.719-62.193V416
		c0-2.864-1.531-5.511-4.016-6.938C412.351,408.354,410.975,408,409.6,408L409.6,408z"/>
</g>
</svg>
